<?xml version="1.0" standalone="no"?>
<!DOCTYPE svg PUBLIC "-//W3C//DTD SVG 20010904//EN"
 "http://www.w3.org/TR/2001/REC-SVG-20010904/DTD/svg10.dtd">
<svg version="1.0" xmlns="http://www.w3.org/2000/svg"
 width="512.000000pt" height="512.000000pt" viewBox="0 0 512.000000 512.000000"
 preserveAspectRatio="xMidYMid meet">
<metadata>
Created by potrace 1.16, written by Peter Selinger 2001-2019
</metadata>
<g transform="translate(0.000000,512.000000) scale(0.100000,-0.100000)"
fill="#d78a59" stroke="none">
<path d="M930 5097 c-108 -32 -184 -80 -270 -167 -84 -85 -139 -182 -165 -292
-22 -95 -22 -4061 0 -4156 26 -110 81 -207 165 -292 87 -89 170 -139 281 -169
75 -21 83 -21 1846 -19 l1771 3 27 25 c59 55 55 -135 55 2530 0 2665 4 2475
-55 2530 l-27 25 -1776 2 -1777 2 -75 -22z m2660 -966 c38 -20 80 -82 80 -120
0 -48 -38 -108 -84 -130 -42 -21 -53 -21 -1026 -21 -973 0 -984 0 -1026 21
-46 22 -84 82 -84 130 0 38 42 100 80 120 33 18 80 19 1030 19 950 0 997 -1
1030 -19z m740 -3501 l0 -330 -1637 2 -1638 3 -58 23 c-70 29 -144 98 -177
167 -86 177 22 404 215 451 38 9 426 12 1673 13 l1622 1 0 -330z"/>
</g>
</svg>
