<?xml version="1.0" standalone="no"?>
<!DOCTYPE svg PUBLIC "-//W3C//DTD SVG 20010904//EN"
 "http://www.w3.org/TR/2001/REC-SVG-20010904/DTD/svg10.dtd">
<svg version="1.0" xmlns="http://www.w3.org/2000/svg"
 width="512.000000pt" height="512.000000pt" viewBox="0 0 512.000000 512.000000"
 preserveAspectRatio="xMidYMid meet">
<metadata>
Created by potrace 1.16, written by Peter Selinger 2001-2019
</metadata>
<g transform="translate(0.000000,512.000000) scale(0.100000,-0.100000)"
fill="#d78a59" stroke="none">
<path d="M2410 4190 c-745 -57 -1553 -543 -2237 -1347 -153 -180 -173 -212
-173 -283 0 -71 20 -103 173 -283 564 -663 1240 -1129 1864 -1286 180 -45 333
-63 523 -63 194 0 348 19 535 67 621 159 1291 623 1852 1282 153 180 173 212
173 283 0 71 -20 103 -173 283 -564 663 -1240 1129 -1864 1286 -215 54 -467
76 -673 61z m425 -365 c523 -93 1057 -406 1576 -924 170 -171 309 -324 309
-341 0 -31 -408 -451 -575 -591 -444 -373 -878 -596 -1315 -676 -117 -21 -399
-23 -515 -4 -483 79 -980 349 -1467 795 -173 158 -448 451 -448 476 0 31 408
451 575 591 487 409 969 641 1440 693 77 8 331 -3 420 -19z"/>
<path d="M2432 3569 c-281 -33 -557 -203 -718 -445 -268 -402 -215 -940 128
-1282 396 -397 1040 -397 1436 0 397 396 397 1040 0 1436 -163 164 -374 265
-603 292 -101 11 -139 11 -243 -1z m263 -354 c39 -8 113 -36 165 -61 221 -110
370 -348 370 -594 0 -246 -149 -484 -370 -594 -206 -101 -394 -101 -600 0
-221 110 -370 348 -370 594 0 99 25 195 76 300 133 268 436 416 729 355z"/>
</g>
</svg>
