<?xml version="1.0" standalone="no"?>
<!DOCTYPE svg PUBLIC "-//W3C//DTD SVG 20010904//EN"
 "http://www.w3.org/TR/2001/REC-SVG-20010904/DTD/svg10.dtd">
<svg version="1.0" xmlns="http://www.w3.org/2000/svg"
 width="512.000000pt" height="512.000000pt" viewBox="0 0 512.000000 512.000000"
 preserveAspectRatio="xMidYMid meet">
<metadata>
Created by potrace 1.16, written by Peter Selinger 2001-2019
</metadata>
<g transform="translate(0.000000,512.000000) scale(0.100000,-0.100000)"
fill="#d78a59" stroke="none">
<path d="M2465 5101 c-48 -22 -79 -54 -100 -103 -12 -31 -15 -90 -15 -342 l0
-304 -72 -12 c-320 -51 -596 -171 -858 -370 -102 -78 -280 -265 -362 -380 -74
-103 -190 -331 -231 -450 -27 -79 -61 -207 -71 -275 -4 -22 -9 -52 -12 -67
l-6 -28 -291 0 c-262 0 -296 -2 -332 -19 -74 -34 -115 -102 -115 -191 0 -89
41 -157 115 -191 36 -17 69 -19 331 -19 l291 0 12 -78 c104 -659 562 -1208
1195 -1431 92 -33 265 -75 354 -86 l52 -7 0 -294 c0 -315 3 -338 53 -393 74
-80 240 -80 314 0 50 55 53 78 53 393 l0 294 73 12 c731 119 1318 662 1486
1375 11 44 22 103 26 130 13 94 -21 85 313 85 267 0 301 2 337 19 22 10 50 29
62 42 73 80 69 235 -8 306 -55 50 -77 53 -399 53 -298 0 -300 0 -300 21 0 11
-9 66 -20 121 -105 515 -442 970 -906 1224 -188 102 -377 165 -626 208 l-38 7
0 307 c0 277 -2 311 -19 347 -10 22 -29 50 -42 62 -58 53 -169 69 -244 34z
m-81 -1968 c36 -53 111 -93 176 -93 64 0 140 40 176 92 l29 41 3 369 c3 351 4
368 21 368 38 0 219 -52 301 -87 433 -183 744 -562 835 -1020 l6 -32 -378 -3
-378 -3 -42 -29 c-53 -36 -93 -111 -93 -176 0 -64 40 -140 92 -176 l41 -29
380 -3 379 -3 -7 -46 c-4 -26 -18 -86 -32 -133 -139 -482 -546 -861 -1040
-970 l-82 -18 -3 382 -3 381 -29 42 c-36 53 -111 93 -176 93 -65 0 -140 -40
-176 -93 l-29 -42 -3 -382 -3 -382 -32 5 c-317 57 -599 215 -810 453 -175 197
-270 394 -333 688 l-4 22 388 3 389 3 41 29 c52 36 92 112 92 176 0 65 -40
140 -93 176 l-42 29 -382 3 c-362 3 -383 4 -383 21 0 26 37 167 60 228 124
333 374 608 698 772 80 40 254 99 341 115 l66 12 5 -370 5 -371 29 -42z"/>
</g>
</svg>
